<?xml version="1.0" encoding="utf-8"?>
<!-- Generator: Adobe Illustrator 18.0.0, SVG Export Plug-In . SVG Version: 6.00 Build 0)  -->
<!DOCTYPE svg PUBLIC "-//W3C//DTD SVG 1.1//EN" "http://www.w3.org/Graphics/SVG/1.1/DTD/svg11.dtd">
<svg version="1.1" id="Layer_1" xmlns="http://www.w3.org/2000/svg" xmlns:xlink="http://www.w3.org/1999/xlink" x="0px" y="0px"
	 viewBox="0 0 789.3 184.6" enable-background="new 0 0 789.3 184.6" xml:space="preserve">
<g>
	<path d="M0,119.1c0.3,7.4,3.3,14.2,9,20.5c5.7,6.3,13.7,9.5,24,9.5c5.5,0,10.7-1.1,15.4-3.4c4.7-2.3,8.8-5.3,12.2-9.3
		c3.4-3.9,6.1-8.6,8.1-14c1.9-5.4,2.9-11.2,2.9-17.5c0-6.4-1.1-12.2-3.4-17.3c-2.3-5.1-5.2-9.4-8.9-13c-3.7-3.5-7.9-6.3-12.6-8.2
		c-4.7-1.9-9.5-2.8-14.4-2.8c-3.6,0-7.1,0.5-10.5,1.4c-3.4,1-6.6,2.3-9.5,4.1c-2.9,1.8-5.4,4-7.5,6.6C2.6,78.3,1,81.2,0,84.5h4.6
		C9.5,74,17.8,68.8,29.6,68.8c17.3,0,26,13.9,26,41.8c-0.1,0.9-0.1,2.1-0.1,3.5c0,1.4-0.1,3.1-0.3,5H0L0,119.1z M54.8,123
		c-2.2,14.6-9.2,21.8-21,21.8c-2.4,0-4.6-0.4-6.7-1.2c-2.1-0.8-3.9-2-5.5-3.5c-1.5-1.5-2.8-3.4-3.7-5.6c-0.9-2.2-1.4-4.7-1.4-7.6
		c0-1.2,0.1-2.5,0.3-4H54.8L54.8,123z M165.5,56.4l8.8-20.6c2.3-5.3,4.9-9.4,8-12.2c3.1-2.8,6.7-4.2,10.7-4.3v-4.4h-40v4.4
		c10.5,0.3,15.7,4.1,15.7,11.5c0,3.7-2.5,11.6-7.6,23.7L131,126.8L93.3,39.9c-3-6.9-4.5-11.3-4.5-13.1c0-2.9,1.2-4.9,3.6-5.9
		c2.4-1,7.1-1.5,14.1-1.5v-4.4H50.1v4.4c6.2,0.1,10.7,1.3,13.4,3.4c2.8,2.1,5.4,6.3,7.9,12.5c1.8,4.6,3.1,7.8,4,9.7l45.2,104.1h6
		L165.5,56.4L165.5,56.4z M128.3,168.5c-1.8-1.8-4.1-2.8-6.7-2.8c-2.6,0-4.8,0.9-6.7,2.8c-1.9,1.8-2.8,4-2.8,6.6
		c0,2.6,0.9,4.9,2.8,6.7c1.9,1.8,4.1,2.8,6.7,2.8c2.6,0,4.8-0.9,6.7-2.8c1.9-1.8,2.8-4.1,2.8-6.7
		C131.1,172.5,130.1,170.3,128.3,168.5L128.3,168.5z M208.1,129.4c13.3,12.6,30.4,18.8,51.2,18.8c21.4,0,38.6-6.3,51.7-18.8
		c13.1-12.6,19.7-29,19.7-49.3c0-20.9-6.9-37.4-20.6-49.5c-13.7-12.1-30.7-18.2-51.1-18.2c-20.3,0-37.2,6.1-50.6,18.4
		c-13.5,12.3-20.3,28.5-20.3,48.7C188.1,100.2,194.7,116.9,208.1,129.4L208.1,129.4L208.1,129.4z M260.6,143.4
		c-33.2,0-50-20.5-50.4-61.4h98.2c-0.3,20.2-4.6,35.4-12.8,45.6C286.9,138.1,275.3,143.4,260.6,143.4L260.6,143.4L260.6,143.4z
		 M294.5,32.1c8.4,9.9,12.9,24.1,13.7,42.6h-97.9c0.7-18.9,5.2-33.2,13.6-42.9c8.3-9.7,20.1-14.5,35.2-14.5
		C274.3,17.3,286.1,22.2,294.5,32.1L294.5,32.1z M385.9,142.9c8.2,3.5,17.4,5.3,27.7,5.3c17.9,0,32.6-6.5,44.1-19.5
		c3,4,5.1,8.6,6.3,13.8h4.2V96.7H464c-0.8,7.6-3.3,15.5-7.6,23.6c-4.3,8.1-10.1,13.9-17.4,17.3c-7.3,3.4-14.5,5.1-21.5,5.1
		c-10.4,0-19.4-3.2-27-9.7l50.7-108.8c1.7,1,3.4,2.2,5.1,3.5c8.9,6.9,14.9,19.2,17.8,36.8h4.2L467,14.9h-4.2c-0.6,5.9-2.3,11.5-5,17
		c-3.4-4.2-8.3-8.1-14.8-11.7L452.4,0h-5.9l-8.2,17.8c-7.5-3.5-15.9-5.3-25-5.3c-11.8,0-22.7,2.8-32.6,8.3
		c-9.9,5.5-17.6,14-23.2,25.4c-5.5,11.4-8.3,23.6-8.3,36.6c0,19.7,6,35.5,18,47.5c4.2,4.3,8.9,7.7,13.9,10.4l-11.3,24.4h5.8
		L385.9,142.9L385.9,142.9z M436.4,21.7l-49.9,107.5c-0.6-0.7-1.3-1.4-1.9-2.1c-8.8-10.5-13.2-25.6-13.2-45.2
		c0-20.7,4-36.7,12.1-47.8c8.1-11.1,19-16.7,32.7-16.7C423.4,17.4,430.1,18.8,436.4,21.7L436.4,21.7L436.4,21.7z M544.2,13
		l-55.8,132.8h115.8L548,13H544.2L544.2,13z M538.8,37.4l34.9,84.4c1.5,3.6,2.6,6.4,3.3,8.5c0.7,2.1,1.1,3.4,1.1,4.2
		c0,1.4-0.2,2.5-0.7,3.4c-0.5,0.9-1.3,1.6-2.5,2.2c-1.2,0.5-2.8,0.9-4.9,1.1c-2.1,0.2-4.7,0.3-8,0.3h-44.7c-4.2,0-7.7-1-10.3-3
		c-2.6-2-4-5-4-8.9c0-3.6,2.5-11.5,7.5-23.6L538.8,37.4L538.8,37.4z M697.4,145.8v-41.2c8.9,6.2,17.6,12.9,25.9,20
		c8.3,7.1,16.7,14.1,25.1,21.2h41v-4.3c-4.6,0-8.3-0.3-11.1-1c-2.8-0.7-4.9-1.7-6.3-3.1c-1.4-1.4-2.3-3.1-2.8-5.3
		c-0.4-2.1-0.6-4.6-0.6-7.5c0-1.9,0-3.8,0.1-5.9c0.1-2.1,0.1-4.4,0.1-6.8V47.5c0-2.6,0-4.9-0.1-7.1c-0.1-2.2-0.1-4.1-0.1-5.8
		c0-3,0.2-5.4,0.6-7.4c0.4-2,1.3-3.5,2.8-4.7c1.4-1.2,3.5-2,6.3-2.5c2.8-0.5,6.5-0.7,11.1-0.7v-4.4h-62.9v4.4
		c5.4,0,9.7,0.2,12.8,0.6c3.1,0.4,5.5,1.2,7.1,2.5c1.6,1.2,2.6,2.9,3,5.1c0.5,2.2,0.7,5.1,0.7,8.6c0,1.6,0,3.3,0,5.2
		c0,1.9,0,3.9,0,6.2v68.6c0,3.2-0.1,6.4-0.3,9.6c-0.2,3.3-0.3,6.5-0.3,9.7c0,1,0,1.9,0,2.9c0,1,0.1,1.9,0.2,2.8
		c-9.2-8.1-18.4-16.2-27.6-24.3c-9.2-8.1-18.7-15.8-28.6-23.1h-14.9c0,5.7-0.1,11.4-0.4,17.3c-0.3,5.9-0.4,11.7-0.4,17.6
		c0,2.1,0,4.2,0.1,6.3c0.1,2.1,0.2,4.2,0.3,6.2l-48.9-35.5c0-1.7,0.4-3,1.3-4c0.8-1,1.9-1.8,3.3-2.3c1.4-0.5,2.8-0.8,4.4-1
		c1.6-0.1,3.2-0.2,4.7-0.2h4.1v-4.4h-43.8v4.4c2.5,0.1,5,0.3,7.4,0.8c2.4,0.5,4.7,1.4,7,2.7c5,3,10.1,6.3,15.1,9.9
		c5.1,3.6,10.1,7.4,15.1,11.3c5,3.9,10,7.8,14.9,11.7c4.9,3.9,9.7,7.7,14.3,11.2L697.4,145.8L697.4,145.8z"/>
</g>
</svg>
