<?xml version="1.0" encoding="utf-8"?>
<!-- Generator: Adobe Illustrator 16.0.0, SVG Export Plug-In . SVG Version: 6.00 Build 0)  -->
<!DOCTYPE svg PUBLIC "-//W3C//DTD SVG 1.1//EN" "http://www.w3.org/Graphics/SVG/1.1/DTD/svg11.dtd">
<svg version="1.1" xmlns="http://www.w3.org/2000/svg" xmlns:xlink="http://www.w3.org/1999/xlink" x="0px" y="0px" width="32px"
	 height="32px" viewBox="0 0 32 32" enable-background="new 0 0 32 32" xml:space="preserve">
<g id="Layer_1">
	<g>
		<path d="M-0.002,17.664c0.012,0.301,0.134,0.576,0.365,0.832c0.231,0.255,0.556,0.385,0.973,0.385
			c0.223,0,0.434-0.045,0.625-0.138c0.19-0.093,0.356-0.215,0.495-0.377c0.138-0.158,0.247-0.349,0.328-0.567
			C2.86,17.58,2.9,17.344,2.9,17.089c0-0.259-0.044-0.495-0.138-0.701c-0.093-0.207-0.211-0.382-0.361-0.527
			c-0.15-0.142-0.32-0.255-0.511-0.332c-0.191-0.077-0.385-0.114-0.584-0.114c-0.146,0-0.288,0.021-0.426,0.057
			c-0.138,0.041-0.268,0.094-0.385,0.167S0.277,15.8,0.192,15.905c-0.089,0.105-0.154,0.223-0.195,0.356h0.187
			c0.199-0.426,0.535-0.637,1.014-0.637c0.701,0,1.054,0.564,1.054,1.695c-0.004,0.036-0.004,0.085-0.004,0.142
			s-0.004,0.126-0.012,0.202H-0.002L-0.002,17.664z M2.219,17.822c-0.089,0.592-0.373,0.885-0.852,0.885
			c-0.097,0-0.187-0.017-0.271-0.049c-0.085-0.033-0.158-0.082-0.223-0.143c-0.061-0.061-0.113-0.138-0.15-0.227
			c-0.036-0.09-0.057-0.19-0.057-0.309c0-0.049,0.004-0.102,0.012-0.162h1.541V17.822z M6.708,15.123l0.356-0.836
			c0.093-0.215,0.199-0.381,0.324-0.494c0.126-0.113,0.272-0.17,0.434-0.174v-0.18H6.201v0.18c0.426,0.012,0.636,0.166,0.636,0.466
			c0,0.149-0.101,0.47-0.308,0.96l-1.22,2.932L3.78,14.453c-0.122-0.279-0.183-0.457-0.183-0.531c0-0.117,0.049-0.197,0.146-0.238
			s0.288-0.061,0.572-0.061v-0.179H2.029v0.179c0.251,0.004,0.434,0.053,0.543,0.137c0.114,0.086,0.219,0.256,0.32,0.508
			c0.073,0.186,0.126,0.316,0.162,0.393l1.833,4.221H5.13L6.708,15.123L6.708,15.123z M5.199,19.668
			c-0.073-0.074-0.167-0.114-0.272-0.114c-0.105,0-0.194,0.036-0.271,0.114c-0.077,0.072-0.113,0.162-0.113,0.268
			s0.036,0.198,0.113,0.271c0.077,0.072,0.167,0.113,0.271,0.113c0.105,0,0.195-0.037,0.272-0.113
			c0.077-0.073,0.113-0.166,0.113-0.271S5.272,19.74,5.199,19.668L5.199,19.668z M8.435,18.082c0.539,0.512,1.232,0.762,2.076,0.762
			c0.868,0,1.565-0.255,2.096-0.762c0.531-0.511,0.799-1.176,0.799-1.998c0-0.848-0.28-1.517-0.835-2.008
			c-0.556-0.49-1.245-0.737-2.072-0.737c-0.823,0-1.508,0.247-2.051,0.746c-0.547,0.499-0.823,1.155-0.823,1.974
			C7.624,16.898,7.891,17.575,8.435,18.082L8.435,18.082L8.435,18.082z M10.563,18.65c-1.346,0-2.027-0.832-2.043-2.49h3.981
			c-0.012,0.819-0.187,1.436-0.519,1.85C11.629,18.436,11.159,18.65,10.563,18.65L10.563,18.65L10.563,18.65z M11.937,14.138
			c0.341,0.401,0.523,0.978,0.556,1.728H8.523c0.028-0.768,0.211-1.347,0.552-1.74c0.336-0.393,0.814-0.588,1.427-0.588
			C11.118,13.537,11.597,13.736,11.937,14.138L11.937,14.138z M15.643,18.629c0.332,0.143,0.705,0.215,1.123,0.215
			c0.727,0,1.322-0.263,1.789-0.79c0.121,0.162,0.205,0.349,0.254,0.56h0.172v-1.857h-0.172c-0.031,0.309-0.133,0.629-0.307,0.957
			c-0.176,0.328-0.41,0.564-0.707,0.701c-0.295,0.139-0.588,0.207-0.871,0.207c-0.422,0-0.787-0.129-1.095-0.393l2.056-4.411
			c0.068,0.04,0.139,0.089,0.207,0.142c0.361,0.279,0.604,0.778,0.721,1.492h0.172l-0.053-2.012H18.76
			c-0.023,0.24-0.092,0.467-0.201,0.689c-0.139-0.17-0.338-0.328-0.602-0.475l0.383-0.818H18.1l-0.332,0.722
			c-0.305-0.142-0.645-0.215-1.014-0.215c-0.479,0-0.92,0.114-1.322,0.337s-0.714,0.567-0.941,1.029
			c-0.223,0.463-0.336,0.957-0.336,1.484c0,0.799,0.243,1.439,0.73,1.926c0.17,0.174,0.361,0.312,0.563,0.422l-0.458,0.988h0.235
			L15.643,18.629L15.643,18.629z M17.689,13.716l-2.022,4.358c-0.024-0.028-0.053-0.057-0.077-0.086
			c-0.357-0.425-0.535-1.037-0.535-1.832c0-0.839,0.162-1.488,0.49-1.938c0.329-0.45,0.771-0.678,1.326-0.678
			C17.164,13.541,17.436,13.598,17.689,13.716L17.689,13.716L17.689,13.716z M22.061,13.363l-2.262,5.384h4.695l-2.279-5.384H22.061
			L22.061,13.363z M21.842,14.353l1.416,3.421c0.061,0.146,0.104,0.26,0.133,0.346c0.029,0.085,0.045,0.137,0.045,0.17
			c0,0.057-0.008,0.102-0.029,0.138c-0.02,0.036-0.053,0.065-0.102,0.089c-0.047,0.021-0.113,0.037-0.197,0.045
			c-0.086,0.008-0.191,0.012-0.324,0.012h-1.812c-0.17,0-0.312-0.04-0.418-0.121s-0.162-0.203-0.162-0.361
			c0-0.146,0.102-0.466,0.305-0.956L21.842,14.353L21.842,14.353z M28.271,18.747v-1.671c0.361,0.252,0.715,0.523,1.051,0.812
			S30,18.459,30.34,18.747h1.662v-0.175c-0.188,0-0.336-0.012-0.449-0.04c-0.115-0.028-0.199-0.069-0.256-0.126
			s-0.094-0.125-0.113-0.215c-0.018-0.085-0.025-0.186-0.025-0.304c0-0.077,0-0.154,0.004-0.239s0.004-0.178,0.004-0.275v-2.611
			c0-0.105,0-0.199-0.004-0.287c-0.004-0.09-0.004-0.167-0.004-0.236c0-0.121,0.008-0.219,0.025-0.299
			c0.016-0.082,0.053-0.143,0.113-0.191c0.057-0.049,0.141-0.081,0.256-0.102c0.113-0.02,0.262-0.027,0.449-0.027v-0.18h-2.551v0.18
			c0.219,0,0.395,0.008,0.52,0.023c0.125,0.017,0.223,0.049,0.287,0.102c0.066,0.049,0.105,0.117,0.123,0.207
			c0.02,0.089,0.027,0.207,0.027,0.349c0,0.064,0,0.134,0,0.21c0,0.078,0,0.158,0,0.252v2.781c0,0.13-0.004,0.26-0.012,0.389
			c-0.008,0.135-0.012,0.264-0.012,0.395c0,0.04,0,0.076,0,0.117c0,0.04,0.004,0.076,0.008,0.113
			c-0.373-0.328-0.746-0.656-1.119-0.985c-0.373-0.328-0.758-0.641-1.16-0.937H27.51c0,0.231-0.004,0.463-0.016,0.701
			c-0.014,0.239-0.018,0.475-0.018,0.714c0,0.085,0,0.171,0.004,0.255c0.006,0.086,0.01,0.171,0.014,0.252l-1.982-1.439
			c0-0.068,0.016-0.121,0.053-0.162c0.031-0.041,0.076-0.072,0.133-0.094c0.057-0.02,0.113-0.031,0.178-0.04
			c0.066-0.004,0.131-0.008,0.191-0.008h0.166v-0.179h-1.775v0.179c0.102,0.004,0.203,0.012,0.301,0.032
			c0.096,0.021,0.189,0.057,0.283,0.109c0.203,0.121,0.41,0.256,0.611,0.401c0.207,0.146,0.41,0.3,0.613,0.458
			s0.404,0.316,0.604,0.475s0.393,0.312,0.58,0.454L28.271,18.747L28.271,18.747z"/>
	</g>
</g>
<g id="Layer_2" display="none">
	<rect display="inline" fill="none" width="32" height="32"/>
</g>
</svg>
